<svg width="30" height="31" viewBox="0 0 30 31" fill="none" xmlns="http://www.w3.org/2000/svg">
<path d="M0 15.75C0 7.48828 6.67969 0.75 15 0.75C23.2617 0.75 30 7.48828 30 15.75C30 24.0703 23.2617 30.75 15 30.75C6.67969 30.75 0 24.0703 0 15.75ZM21.7383 13.1719C22.3828 12.5273 22.3828 11.5312 21.7383 10.8867C21.0938 10.2422 20.0977 10.2422 19.4531 10.8867L13.125 17.2148L10.4883 14.6367C9.84375 13.9922 8.84766 13.9922 8.20312 14.6367C7.55859 15.2812 7.55859 16.2773 8.20312 16.9219L11.9531 20.6719C12.5977 21.3164 13.5938 21.3164 14.2383 20.6719L21.7383 13.1719Z" fill="#CC0000"/>
</svg>
