<?xml version="1.0" encoding="UTF-8"?>
<svg id="Layer_2" data-name="Layer 2" xmlns="http://www.w3.org/2000/svg" viewBox="0 0 1968.32 1098.13">
  <defs>
    <style>
      .cls-1 {
        fill: #cc0200;
      }

      .cls-1, .cls-2 {
        stroke-width: 0px;
      }

      .cls-2 {
        fill: #000;
      }
    </style>
  </defs>
  <g>
    <path class="cls-2" d="M177.68,667.21h27.37c5.03,0,7.36.65,9.11,2.54,1.34,1.49,2.04,4.03,2.04,7.61,0,5.37-1.24,7.26-5.32,8.21,3.38.65,4.68,2.39,4.68,6.22v8.61h-3.98v-6.32c.1-5.72-1.34-7.12-7.12-7.07h-22.79v13.39h-3.98v-33.19ZM203.5,683.88c6.82,0,8.56-1.34,8.56-6.72s-1.79-6.62-8.81-6.62h-21.6v13.34h21.85Z"/>
    <path class="cls-2" d="M297.44,669.9c2.14,2.24,2.64,4.83,2.64,13.88s-.5,11.69-2.64,13.93c-2.54,2.64-5.08,3.04-18.71,3.04s-16.17-.4-18.71-3.04c-2.14-2.24-2.64-4.83-2.64-13.88s.5-11.74,2.64-13.93c2.54-2.64,5.08-3.04,18.91-3.04s15.97.45,18.51,3.04ZM263.26,672.39c-1.39,1.44-1.74,3.83-1.74,11.44s.35,9.95,1.74,11.4c1.69,1.79,3.78,2.04,15.48,2.04s13.78-.3,15.48-2.04c1.39-1.44,1.74-3.83,1.74-11.4s-.35-10-1.74-11.44c-1.54-1.69-4.33-2.04-15.28-2.04s-14.08.35-15.67,2.04Z"/>
    <path class="cls-2" d="M381.28,669.9c2.14,2.24,2.64,4.83,2.64,13.88s-.5,11.69-2.64,13.93c-2.54,2.64-5.08,3.04-18.71,3.04s-16.17-.4-18.71-3.04c-2.14-2.24-2.64-4.83-2.64-13.88s.5-11.74,2.64-13.93c2.54-2.64,5.08-3.04,18.91-3.04s15.97.45,18.51,3.04ZM347.1,672.39c-1.39,1.44-1.74,3.83-1.74,11.44s.35,9.95,1.74,11.4c1.69,1.79,3.78,2.04,15.48,2.04s13.78-.3,15.48-2.04c1.39-1.44,1.74-3.83,1.74-11.4s-.35-10-1.74-11.44c-1.54-1.69-4.33-2.04-15.28-2.04s-14.08.35-15.67,2.04Z"/>
    <path class="cls-2" d="M426.06,667.21h31.75v3.33h-27.77v11.45h26.32v3.14h-26.32v15.28h-3.98v-33.19Z"/>
    <path class="cls-2" d="M498.1,667.21h3.98v33.19h-3.98v-33.19Z"/>
    <path class="cls-2" d="M545.22,667.21h6.42l31.35,30.35v-30.35h3.98v33.19h-6.42l-31.35-30.35v30.35h-3.98v-33.19Z"/>
    <path class="cls-2" d="M670.71,684.03q0,5.42-.2,7.51c-.4,4.33-1.89,6.92-4.73,8.06-2.14.9-5.18,1.14-15.28,1.14-13.83,0-16.37-.4-18.91-3.04-2.14-2.24-2.64-4.83-2.64-13.88s.5-11.69,2.64-13.93c2.59-2.69,4.93-3.04,20.1-3.04,10.2,0,12.89.35,15.28,1.99,2.29,1.54,3.23,3.78,3.38,8.11h-3.93c-.1-3.13-.3-4.03-1.24-4.88-1.59-1.54-3.04-1.74-12.09-1.74-13.09,0-15.92.25-17.67,1.49-1.89,1.39-2.34,3.63-2.34,11.99,0,7.56.35,10,1.74,11.4,1.59,1.69,4.03,2.04,13.98,2.04,12.94,0,14.68-.2,16.37-2.09,1.24-1.34,1.49-2.59,1.64-7.81h-17.76v-3.33h21.65Z"/>
    <path class="cls-2" d="M796.04,696.72c-1.69,2.89-4.68,3.63-14.38,3.63-12.09,0-16.37-.3-18.61-1.19-3.33-1.44-4.78-4.18-4.78-9.21,0-6.72,2.14-9.06,8.36-9.31-3.13-1.99-4.03-3.38-4.03-6.37s.95-5.03,2.94-6.22c1.59-.95,3.28-1.19,8.21-1.19,14.08,0,15.77.15,18.06,1.84,1.89,1.34,2.59,3.43,2.59,7.46v.7h-4.23c0-6.07-.45-6.37-10.3-6.37-7.81,0-9.26.05-10.4.2-1.89.35-2.74,1.49-2.74,3.78s.65,3.09,4.93,5.38l21.8,11.49c.25-1.09.3-1.64.3-3.13,0-.85-.05-2.09-.15-3.98h4.28c.05,1.14.1,1.89.1,2.89,0,2.59-.15,3.98-.65,6.27l6.67,3.48-1.05,3.43-6.92-3.58ZM769.32,682.64c-2.69.15-4.43.7-5.42,1.74-.94,1.04-1.39,2.84-1.39,5.97,0,2.69.45,4.08,1.64,4.98,1.54,1.14,5.92,1.64,13.98,1.64,9.26,0,13.09-.65,14.08-2.29l-22.89-12.04Z"/>
    <path class="cls-2" d="M927.39,689.26v1.39c0,3.98-.4,5.72-1.69,7.22-1.24,1.49-2.89,2.19-5.92,2.54-1.89.15-7.56.35-12.04.35-11.99,0-14.93-.5-17.37-3.04-2.14-2.19-2.64-4.83-2.64-13.88,0-10.35.7-12.99,4.08-15.13,2.54-1.59,5.27-1.84,18.96-1.84,8.31,0,11.2.4,13.24,1.89,2.24,1.54,2.94,3.63,3.09,8.91h-3.88v-.85c0-5.87-1.39-6.47-15.33-6.47-15.92,0-16.02.05-16.02,13.49,0,7.56.35,9.95,1.74,11.4,1.59,1.64,4.13,2.04,13.44,2.04,14.93,0,16.47-.55,16.47-6.12v-1.89h3.88Z"/>
    <path class="cls-2" d="M968.84,667.21h3.98v14.53h31.1v-14.53h3.98v33.19h-3.98v-15.53h-31.1v15.53h-3.98v-33.19Z"/>
    <path class="cls-2" d="M1050.68,667.21h3.98v33.19h-3.98v-33.19Z"/>
    <path class="cls-2" d="M1097.8,667.21h6.42l20,28.56,20.05-28.56h6.22v33.19h-3.98v-29.91l-20.9,29.91h-2.94l-20.9-29.91v29.91h-3.98v-33.19Z"/>
    <path class="cls-2" d="M1193.28,667.21h6.42l31.35,30.35v-30.35h3.98v33.19h-6.42l-31.35-30.35v30.35h-3.98v-33.19Z"/>
    <path class="cls-2" d="M1278.16,667.21h33.04v3.33h-29.06v11.1h28.02v3.13h-28.02v12.29h29.31v3.33h-33.29v-33.19Z"/>
    <path class="cls-2" d="M1386.58,667.21h5.47l-19.26,19.26v13.93h-3.98v-13.93l-19.26-19.26h5.42l15.82,15.97,15.77-15.97Z"/>
  </g>
  <path class="cls-2" d="M215.03,494.42c0,10.07,7.26,18.08,15.88,18.08h102.74c21.79,0,39.45,17.66,39.45,39.45v29.56c0,21.79-17.66,39.45-39.45,39.45h-148.04c-4.45,0-8.06-3.61-8.06-8.06v-20.29c0-4.45,3.61-8.06,8.06-8.06h131.67c8.62,0,15.88-8.01,15.88-17.82s-7.26-18.08-15.88-18.08h-95.92c-26.08,0-47.62-24.27-47.62-54.22s21.54-54.23,47.62-54.23h138.57c3.31,0,5.99,2.68,5.99,5.99v24.16c0,3.31-2.68,5.99-5.99,5.99h-129.02c-8.62,0-15.88,8.26-15.88,18.08Z"/>
  <path class="cls-2" d="M422.29,622.4c-22,0-27.19-19.38-27.19-43.24s5.19-43.74,27.19-43.74h118.32c0-15.74-7.03-25.23-15.87-25.23h-111.6c-3.57,0-6.47-2.9-6.47-6.47v-17.93c0-3.57,2.9-6.47,6.47-6.47h111.6c44.92,1,51.7,27.52,51.7,56.09v73.9c0,7.22-5.86,13.08-13.08,13.08h-141.07ZM434.79,587.86h105.83v-17.4h-105.83c-4.31,0-2.59,3.73-2.59,8.7s-1.72,8.7,2.59,8.7Z"/>
  <path class="cls-2" d="M908.27,522.57c0-31.6-13.18-43.25-35.18-43.25h-102.77c-24.14,0-43.69,19.57-43.69,43.69v43.3c0,28.58,6.78,55.09,51.7,56.09h119.03c3.57,0,6.47-2.89,6.47-6.47v-17.93c0-3.58-2.9-6.47-6.47-6.47h-119.03c-8.84,0-15.88-9.48-15.88-25.22h125.75c22,0,20.06-19.64,20.06-43.74ZM779.85,509.62h81.02c5.63,0,10.19,4.56,10.19,10.19v15.35c0,1.76-1.43,3.18-3.18,3.18h-105.43c0-21.2,7.79-28.73,17.4-28.73Z"/>
  <path class="cls-2" d="M1659.44,428.23l-12.72,22.39c-1.57,2.77-4.51,4.48-7.69,4.48h-356.11c-12.25,0-24-4.87-32.66-13.53l-18.72-18.72-120.15-120.16c-5.01-5.01-13.13-5.01-18.13,0l-120.16,120.16-18.72,18.72c-8.66,8.66-20.41,13.53-32.66,13.53h-253.16c-8.62,0-9.81,8.68-9.81,19.32v141.53c0,2.76-2.24,5-5,5h-25.39c-2.76,0-5-2.24-5-5v-141.53c0-32.19,9.17-51.57,51.04-51.57h252.78l142.34-142.33c18.12-18.12,47.49-18.11,65.6,0l142.33,142.33h378.86c2.76,0,4.49,2.98,3.13,5.38Z"/>
  <rect class="cls-2" x="592.01" y="478.33" width="117.17" height="33.1" rx="4.39" ry="4.39"/>
  <polygon class="cls-2" points="1023.99 308.63 980.9 308.63 980.9 318.14 986.42 318.14 986.42 368.99 1018.47 368.99 1018.47 318.14 1023.99 318.14 1023.99 308.63"/>
  <path class="cls-1" d="M1254.93,622.4c-22,0-27.19-19.38-27.19-43.24s5.19-43.74,27.19-43.74h118.32c0-15.74-7.03-25.23-15.88-25.23h-111.6c-3.57,0-6.47-2.9-6.47-6.47v-17.93c0-3.57,2.9-6.47,6.47-6.47h111.6c44.92,1,51.7,27.52,51.7,56.09v73.9c0,7.22-5.86,13.08-13.08,13.08h-141.07ZM1267.43,587.86h105.83v-17.4h-105.83c-4.31,0-2.59,3.73-2.59,8.7s-1.72,8.7,2.59,8.7Z"/>
  <path class="cls-1" d="M1206.21,479.32c4.35,0,7.43,4.23,6.11,8.37l-38.97,121.6c-.59,1.84-1.25,3.55-1.97,5.15-2.04,4.48-6.56,7.3-11.48,7.3h-42.37c-5.23,0-9.88-3.32-11.58-8.27l-.03-.1-34.08-104.46c-.38-1.25-5.56-1.25-5.92,0l-34.09,104.46-.03.09c-1.7,4.95-6.35,8.27-11.58,8.27h-42.36c-4.92,0-9.43-2.82-11.48-7.3-.73-1.6-1.39-3.31-1.98-5.15l-38.96-121.6c-1.33-4.14,1.76-8.37,6.11-8.37h27.76c2.82,0,5.3,1.84,6.13,4.53l31.57,102.78c.74,2.2,1.85,5.03,3.7,5.03,2.6,0,2.96-2.52,3.7-4.72l32.96-100.98c1.29-3.97,5-6.65,9.17-6.65h44.71c4.16,0,7.86,2.67,9.16,6.62l33.31,101.01c.74,2.2,1.86,4.72,3.7,4.72s2.96-2.52,3.71-5.03l31.25-102.76c.82-2.7,3.31-4.55,6.14-4.55h27.7Z"/>
  <path class="cls-1" d="M1624.34,480.62c3.22,0,5.24,3.49,3.63,6.28l-100.65,174.97-10.57,18.38c-5.55,9.64-15.82,15.57-26.93,15.57h-27.45c-4.18,0-7.58-3.39-7.58-7.57v-18.81c0-4.18,3.39-7.57,7.57-7.57h15.67c4.63,0,8.93-2.42,11.32-6.38l13.18-21.78,9.48-15.67h-7.68c-6.55,0-12.59-3.53-15.8-9.24l-68.51-121.92c-1.57-2.79.45-6.24,3.65-6.24h34.41c1.56,0,2.99.86,3.71,2.24l55.94,106.52c2.08,3.98,7.75,4.04,9.92.13l59.34-106.73c.74-1.33,2.14-2.15,3.66-2.15h33.66Z"/>
  <path class="cls-1" d="M1659.44,428.22l-12.72,22.39c-1.57,2.77-4.51,4.48-7.69,4.48h-311.69c-11.29,0-22.12-4.49-30.11-12.47l-19.78-19.78h378.86c2.77,0,4.5,2.98,3.13,5.38Z"/>
  <g>
    <rect class="cls-1" x="1109.7" y="378.17" width="19.34" height="19.34"/>
    <rect class="cls-1" x="1083.66" y="378.17" width="19.33" height="19.34"/>
    <rect class="cls-1" x="1109.7" y="404.22" width="19.34" height="19.34"/>
    <rect class="cls-1" x="1083.66" y="404.22" width="19.33" height="19.34"/>
  </g>
</svg>