<?xml version="1.0" encoding="UTF-8"?>
<svg id="Layer_1" data-name="Layer 1" xmlns="http://www.w3.org/2000/svg" version="1.1" viewBox="0 0 290 55">
  <defs>
    <style>
      .cls-1 {
        fill: #cc0200;
      }

      .cls-1, .cls-2 {
        stroke-width: 0px;
      }

      .cls-2 {
        fill: #000;
      }
    </style>
  </defs>
  <g>
    <path class="cls-2" d="M3.2,54.99h5.22c.96,0,1.4.12,1.74.48.26.28.39.77.39,1.45,0,1.02-.24,1.38-1.01,1.57.64.12.89.46.89,1.19v1.64h-.76v-1.21c.02-1.09-.26-1.36-1.36-1.35H3.96v2.55h-.76v-6.33h0ZM8.12,58.17c1.3,0,1.63-.26,1.63-1.28s-.34-1.26-1.68-1.26H3.95v2.54h4.17Z"/>
    <path class="cls-2" d="M26.03,55.5c.41.43.5.92.5,2.65s-.1,2.23-.5,2.66c-.48.5-.97.58-3.57.58s-3.08-.08-3.57-.58c-.41-.43-.5-.92-.5-2.65s.1-2.24.5-2.66c.48-.5.97-.58,3.61-.58s3.05.09,3.53.58h0ZM19.52,55.98c-.27.27-.33.73-.33,2.18s.07,1.9.33,2.17c.32.34.72.39,2.95.39s2.63-.06,2.95-.39c.27-.27.33-.73.33-2.17s-.07-1.91-.33-2.18c-.29-.32-.83-.39-2.91-.39s-2.68.07-2.99.39h0Z"/>
    <path class="cls-2" d="M42.02,55.5c.41.43.5.92.5,2.65s-.1,2.23-.5,2.66c-.48.5-.97.58-3.57.58s-3.08-.08-3.57-.58c-.41-.43-.5-.92-.5-2.65s.1-2.24.5-2.66c.48-.5.97-.58,3.61-.58s3.05.09,3.53.58h0ZM35.5,55.98c-.27.27-.33.73-.33,2.18s.07,1.9.33,2.17c.32.34.72.39,2.95.39s2.63-.06,2.95-.39c.27-.27.33-.73.33-2.17s-.07-1.91-.33-2.18c-.29-.32-.83-.39-2.91-.39s-2.68.07-2.99.39h0Z"/>
    <path class="cls-2" d="M50.56,54.99h6.05v.64h-5.3v2.18h5.02v.6h-5.02v2.91h-.76v-6.33h0Z"/>
    <path class="cls-2" d="M64.3,54.99h.76v6.33h-.76v-6.33Z"/>
    <path class="cls-2" d="M73.28,54.99h1.22l5.98,5.79v-5.79h.76v6.33h-1.22l-5.98-5.79v5.79h-.76v-6.33Z"/>
    <path class="cls-2" d="M97.21,58.2c0,.69-.01,1.17-.04,1.43-.08.83-.36,1.32-.9,1.54-.41.17-.99.22-2.91.22-2.64,0-3.12-.08-3.61-.58-.41-.43-.5-.92-.5-2.65s.1-2.23.5-2.66c.49-.51.94-.58,3.83-.58,1.95,0,2.46.07,2.91.38.44.29.62.72.64,1.55h-.75c-.02-.6-.06-.77-.24-.93-.3-.29-.58-.33-2.31-.33-2.5,0-3.04.05-3.37.28-.36.27-.45.69-.45,2.29,0,1.44.07,1.91.33,2.17.3.32.77.39,2.67.39,2.47,0,2.8-.04,3.12-.4.24-.26.28-.49.31-1.49h-3.39v-.64h4.13Z"/>
    <path class="cls-2" d="M121.11,60.62c-.32.55-.89.69-2.74.69-2.31,0-3.12-.06-3.55-.23-.64-.27-.91-.8-.91-1.76,0-1.28.41-1.73,1.59-1.78-.6-.38-.77-.64-.77-1.21s.18-.96.56-1.19c.3-.18.63-.23,1.57-.23,2.68,0,3.01.03,3.44.35.36.26.49.65.49,1.42v.13h-.81c0-1.16-.09-1.21-1.96-1.21-1.49,0-1.77,0-1.98.04-.36.07-.52.28-.52.72s.12.59.94,1.03l4.16,2.19c.05-.21.06-.31.06-.6,0-.16,0-.4-.03-.76h.82c0,.22.02.36.02.55,0,.49-.03.76-.12,1.2l1.27.66-.2.65-1.32-.68h0ZM116.02,57.93c-.51.03-.84.13-1.03.33-.18.2-.27.54-.27,1.14,0,.51.09.78.31.95.29.22,1.13.31,2.67.31,1.77,0,2.5-.12,2.68-.44l-4.36-2.3Z"/>
    <path class="cls-2" d="M146.16,59.2v.27c0,.76-.08,1.09-.32,1.38-.24.28-.55.42-1.13.48-.36.03-1.44.07-2.3.07-2.29,0-2.85-.1-3.31-.58-.41-.42-.5-.92-.5-2.65,0-1.97.13-2.48.78-2.89.48-.3,1-.35,3.62-.35,1.58,0,2.14.08,2.52.36.43.29.56.69.59,1.7h-.74v-.16c0-1.12-.27-1.23-2.92-1.23-3.04,0-3.05,0-3.05,2.57,0,1.44.07,1.9.33,2.17.3.31.79.39,2.56.39,2.85,0,3.14-.1,3.14-1.17v-.36h.74,0Z"/>
    <path class="cls-2" d="M154.06,54.99h.76v2.77h5.93v-2.77h.76v6.33h-.76v-2.96h-5.93v2.96h-.76v-6.33Z"/>
    <path class="cls-2" d="M169.67,54.99h.76v6.33h-.76v-6.33Z"/>
    <path class="cls-2" d="M178.66,54.99h1.22l3.81,5.45,3.82-5.45h1.19v6.33h-.76v-5.7l-3.99,5.7h-.56l-3.99-5.7v5.7h-.76v-6.33h0Z"/>
    <path class="cls-2" d="M196.86,54.99h1.22l5.98,5.79v-5.79h.76v6.33h-1.22l-5.98-5.79v5.79h-.76v-6.33h0Z"/>
    <path class="cls-2" d="M213.05,54.99h6.3v.64h-5.54v2.12h5.34v.6h-5.34v2.34h5.59v.64h-6.35v-6.33h0Z"/>
    <path class="cls-2" d="M233.72,54.99h1.04l-3.67,3.67v2.66h-.76v-2.66l-3.67-3.67h1.03l3.02,3.05,3.01-3.05h0Z"/>
  </g>
  <path class="cls-2" d="M10.32,22.04c0,1.92,1.38,3.45,3.03,3.45h19.59c4.16,0,7.52,3.37,7.52,7.52v5.64c0,4.16-3.37,7.52-7.52,7.52H4.71c-.85,0-1.54-.69-1.54-1.54v-3.87c0-.85.69-1.54,1.54-1.54h25.11c1.64,0,3.03-1.53,3.03-3.4s-1.38-3.45-3.03-3.45H11.53c-4.97,0-9.08-4.63-9.08-10.34s4.11-10.34,9.08-10.34h26.42c.63,0,1.14.51,1.14,1.14v4.61c0,.63-.51,1.14-1.14,1.14H13.35c-1.64,0-3.03,1.58-3.03,3.45h0Z"/>
  <path class="cls-2" d="M49.84,46.45c-4.2,0-5.18-3.7-5.18-8.25s.99-8.34,5.18-8.34h22.56c0-3-1.34-4.81-3.03-4.81h-21.28c-.68,0-1.23-.55-1.23-1.23v-3.42c0-.68.55-1.23,1.23-1.23h21.28c8.57.19,9.86,5.25,9.86,10.7v14.09c0,1.38-1.12,2.49-2.49,2.49h-26.9ZM52.23,39.86h20.18v-3.32h-20.18c-.82,0-.49.71-.49,1.66s-.33,1.66.49,1.66h0Z"/>
  <path class="cls-2" d="M142.51,27.41c0-6.03-2.51-8.25-6.71-8.25h-19.6c-4.6,0-8.33,3.73-8.33,8.33v8.26c0,5.45,1.29,10.51,9.86,10.7h22.7c.68,0,1.23-.55,1.23-1.23v-3.42c0-.68-.55-1.23-1.23-1.23h-22.7c-1.69,0-3.03-1.81-3.03-4.81h23.98c4.2,0,3.83-3.75,3.83-8.34h0ZM118.03,24.94h15.45c1.07,0,1.94.87,1.94,1.94v2.93c0,.34-.27.61-.61.61h-20.1c0-4.04,1.49-5.48,3.32-5.48h0Z"/>
  <path class="cls-2" d="M285.76,9.42l-2.43,4.27c-.3.53-.86.85-1.47.85h-67.91c-2.34,0-4.58-.93-6.23-2.58l-3.57-3.57-22.91-22.91c-.96-.96-2.5-.96-3.46,0l-22.91,22.91-3.57,3.57c-1.65,1.65-3.89,2.58-6.23,2.58h-48.28c-1.64,0-1.87,1.66-1.87,3.68v26.99c0,.53-.43.95-.95.95h-4.84c-.53,0-.95-.43-.95-.95v-26.99c0-6.14,1.75-9.83,9.73-9.83h48.2l27.14-27.14c3.46-3.46,9.06-3.45,12.51,0l27.14,27.14h72.25c.53,0,.86.57.6,1.03h0Z"/>
  <rect class="cls-2" x="82.21" y="18.97" width="22.34" height="6.31" rx=".84" ry=".84"/>
  <polygon class="cls-2" points="164.58 -13.39 156.36 -13.39 156.36 -11.57 157.42 -11.57 157.42 -1.88 163.53 -1.88 163.53 -11.57 164.58 -11.57 164.58 -13.39"/>
  <path class="cls-1" d="M208.62,46.45c-4.2,0-5.18-3.7-5.18-8.25s.99-8.34,5.18-8.34h22.56c0-3-1.34-4.81-3.03-4.81h-21.28c-.68,0-1.23-.55-1.23-1.23v-3.42c0-.68.55-1.23,1.23-1.23h21.28c8.57.19,9.86,5.25,9.86,10.7v14.09c0,1.38-1.12,2.49-2.49,2.49h-26.9,0ZM211,39.86h20.18v-3.32h-20.18c-.82,0-.49.71-.49,1.66s-.33,1.66.49,1.66h0Z"/>
  <path class="cls-1" d="M199.33,19.16c.83,0,1.42.81,1.17,1.6l-7.43,23.19c-.11.35-.24.68-.38.98-.39.85-1.25,1.39-2.19,1.39h-8.08c-1,0-1.88-.63-2.21-1.58v-.02s-6.5-19.92-6.5-19.92c-.07-.24-1.06-.24-1.13,0l-6.5,19.92v.02c-.33.94-1.22,1.58-2.21,1.58h-8.08c-.94,0-1.8-.54-2.19-1.39-.14-.31-.27-.63-.38-.98l-7.43-23.19c-.25-.79.34-1.6,1.17-1.6h5.29c.54,0,1.01.35,1.17.86l6.02,19.6c.14.42.35.96.71.96.5,0,.56-.48.71-.9l6.29-19.26c.25-.76.95-1.27,1.75-1.27h8.53c.79,0,1.5.51,1.75,1.26l6.35,19.26c.14.42.35.9.71.9s.56-.48.71-.96l5.96-19.6c.16-.51.63-.87,1.17-.87h5.28,0Z"/>
  <path class="cls-1" d="M279.06,19.41c.61,0,1,.67.69,1.2l-19.19,33.37-2.02,3.5c-1.06,1.84-3.02,2.97-5.14,2.97h-5.23c-.8,0-1.45-.65-1.45-1.44v-3.59c0-.8.65-1.44,1.44-1.44h2.99c.88,0,1.7-.46,2.16-1.22l2.51-4.15,1.81-2.99h-1.46c-1.25,0-2.4-.67-3.01-1.76l-13.06-23.25c-.3-.53.09-1.19.7-1.19h6.56c.3,0,.57.16.71.43l10.67,20.31c.4.76,1.48.77,1.89.02l11.32-20.35c.14-.25.41-.41.7-.41h6.42Z"/>
  <path class="cls-1" d="M285.76,9.42l-2.43,4.27c-.3.53-.86.85-1.47.85h-59.44c-2.15,0-4.22-.86-5.74-2.38l-3.77-3.77h72.25c.53,0,.86.57.6,1.03h0Z"/>
  <g>
    <rect class="cls-1" x="180.93" y="-.13" width="3.69" height="3.69"/>
    <rect class="cls-1" x="175.96" y="-.13" width="3.69" height="3.69"/>
    <rect class="cls-1" x="180.93" y="4.84" width="3.69" height="3.69"/>
    <rect class="cls-1" x="175.96" y="4.84" width="3.69" height="3.69"/>
  </g>
</svg>