<?xml version="1.0" encoding="UTF-8"?>
<svg id="Layer_1" data-name="Layer 1" xmlns="http://www.w3.org/2000/svg" version="1.1" viewBox="0 0 290 55">
  <defs>
    <style>
      .cls-1 {
        fill: #cc0200;
      }

      .cls-1, .cls-2 {
        stroke-width: 0px;
      }

      .cls-2 {
        fill: #000;
      }
    </style>
  </defs>
  <g>
    <path class="cls-2" d="M4.26,49.31h3.35c.61,0,.9.08,1.11.31.16.18.25.49.25.93,0,.66-.15.89-.65,1,.41.08.57.29.57.76v1.05h-.49v-.77c.01-.7-.16-.87-.87-.86h-2.79v1.64h-.49v-4.06h0ZM7.41,51.35c.83,0,1.05-.16,1.05-.82s-.22-.81-1.08-.81h-2.64v1.63h2.67Z"/>
    <path class="cls-2" d="M18.9,49.64c.26.27.32.59.32,1.7s-.06,1.43-.32,1.7c-.31.32-.62.37-2.29.37s-1.98-.05-2.29-.37c-.26-.27-.32-.59-.32-1.7s.06-1.44.32-1.7c.31-.32.62-.37,2.31-.37s1.95.06,2.26.37h0ZM14.72,49.95c-.17.18-.21.47-.21,1.4s.04,1.22.21,1.39c.21.22.46.25,1.89.25s1.68-.04,1.89-.25c.17-.18.21-.47.21-1.39s-.04-1.22-.21-1.4c-.19-.21-.53-.25-1.87-.25s-1.72.04-1.92.25h0Z"/>
    <path class="cls-2" d="M29.15,49.64c.26.27.32.59.32,1.7s-.06,1.43-.32,1.7c-.31.32-.62.37-2.29.37s-1.98-.05-2.29-.37c-.26-.27-.32-.59-.32-1.7s.06-1.44.32-1.7c.31-.32.62-.37,2.31-.37s1.95.06,2.26.37h0ZM24.97,49.95c-.17.18-.21.47-.21,1.4s.04,1.22.21,1.39c.21.22.46.25,1.89.25s1.68-.04,1.89-.25c.17-.18.21-.47.21-1.39s-.04-1.22-.21-1.4c-.19-.21-.53-.25-1.87-.25s-1.72.04-1.92.25h0Z"/>
    <path class="cls-2" d="M34.62,49.31h3.88v.41h-3.39v1.4h3.22v.38h-3.22v1.87h-.49v-4.06h0Z"/>
    <path class="cls-2" d="M43.43,49.31h.49v4.06h-.49v-4.06Z"/>
    <path class="cls-2" d="M49.19,49.31h.78l3.83,3.71v-3.71h.49v4.06h-.78l-3.83-3.71v3.71h-.49v-4.06Z"/>
    <path class="cls-2" d="M64.53,51.37c0,.44,0,.75-.02.92-.05.53-.23.85-.58.99-.26.11-.63.14-1.87.14-1.69,0-2-.05-2.31-.37-.26-.27-.32-.59-.32-1.7s.06-1.43.32-1.7c.32-.33.6-.37,2.46-.37,1.25,0,1.58.04,1.87.24.28.19.39.46.41.99h-.48c-.01-.38-.04-.49-.15-.6-.19-.19-.37-.21-1.48-.21-1.6,0-1.95.03-2.16.18-.23.17-.29.44-.29,1.47,0,.92.04,1.22.21,1.39.19.21.49.25,1.71.25,1.58,0,1.79-.02,2-.26.15-.16.18-.32.2-.95h-2.17v-.41h2.65Z"/>
    <path class="cls-2" d="M79.85,52.92c-.21.35-.57.44-1.76.44-1.48,0-2-.04-2.27-.15-.41-.18-.58-.51-.58-1.13,0-.82.26-1.11,1.02-1.14-.38-.24-.49-.41-.49-.78s.12-.61.36-.76c.19-.12.4-.15,1-.15,1.72,0,1.93.02,2.21.22.23.16.32.42.32.91v.09h-.52c0-.74-.06-.78-1.26-.78-.95,0-1.13,0-1.27.02-.23.04-.33.18-.33.46s.08.38.6.66l2.66,1.4c.03-.13.04-.2.04-.38,0-.1,0-.26-.02-.49h.52c0,.14.01.23.01.35,0,.32-.02.49-.08.77l.82.43-.13.42-.85-.44h0ZM76.58,51.2c-.33.02-.54.09-.66.21-.11.13-.17.35-.17.73,0,.33.06.5.2.61.19.14.72.2,1.71.2,1.13,0,1.6-.08,1.72-.28l-2.8-1.47Z"/>
    <path class="cls-2" d="M95.9,52.01v.17c0,.49-.05.7-.21.88-.15.18-.35.27-.72.31-.23.02-.92.04-1.47.04-1.47,0-1.83-.06-2.12-.37-.26-.27-.32-.59-.32-1.7,0-1.27.09-1.59.5-1.85.31-.19.64-.22,2.32-.22,1.02,0,1.37.05,1.62.23.27.19.36.44.38,1.09h-.47v-.1c0-.72-.17-.79-1.87-.79-1.95,0-1.96,0-1.96,1.65,0,.92.04,1.22.21,1.39.19.2.5.25,1.64.25,1.83,0,2.01-.07,2.01-.75v-.23h.47,0Z"/>
    <path class="cls-2" d="M100.97,49.31h.49v1.78h3.8v-1.78h.49v4.06h-.49v-1.9h-3.8v1.9h-.49v-4.06Z"/>
    <path class="cls-2" d="M110.97,49.31h.49v4.06h-.49v-4.06Z"/>
    <path class="cls-2" d="M116.73,49.31h.78l2.44,3.49,2.45-3.49h.76v4.06h-.49v-3.66l-2.55,3.66h-.36l-2.55-3.66v3.66h-.49v-4.06h0Z"/>
    <path class="cls-2" d="M128.41,49.31h.78l3.83,3.71v-3.71h.49v4.06h-.78l-3.83-3.71v3.71h-.49v-4.06h0Z"/>
    <path class="cls-2" d="M138.78,49.31h4.04v.41h-3.55v1.36h3.43v.38h-3.43v1.5h3.58v.41h-4.07v-4.06h0Z"/>
    <path class="cls-2" d="M152.04,49.31h.67l-2.35,2.35v1.7h-.49v-1.7l-2.35-2.35h.66l1.93,1.95,1.93-1.95h0Z"/>
  </g>
  <path class="cls-2" d="M8.82,28.19c0,1.23.89,2.21,1.94,2.21h12.56c2.66,0,4.82,2.16,4.82,4.82v3.61c0,2.66-2.16,4.82-4.82,4.82H5.23c-.54,0-.99-.44-.99-.99v-2.48c0-.54.44-.99.99-.99h16.1c1.05,0,1.94-.98,1.94-2.18s-.89-2.21-1.94-2.21h-11.73c-3.19,0-5.82-2.97-5.82-6.63s2.63-6.63,5.82-6.63h16.94c.4,0,.73.33.73.73v2.95c0,.4-.33.73-.73.73h-15.77c-1.05,0-1.94,1.01-1.94,2.21h0Z"/>
  <path class="cls-2" d="M34.16,43.83c-2.69,0-3.32-2.37-3.32-5.29s.63-5.35,3.32-5.35h14.46c0-1.92-.86-3.08-1.94-3.08h-13.64c-.44,0-.79-.35-.79-.79v-2.19c0-.44.35-.79.79-.79h13.64c5.49.12,6.32,3.36,6.32,6.86v9.03c0,.88-.72,1.6-1.6,1.6h-17.24ZM35.69,39.61h12.94v-2.13h-12.94c-.53,0-.32.46-.32,1.06s-.21,1.06.32,1.06h0Z"/>
  <path class="cls-2" d="M93.57,31.63c0-3.86-1.61-5.29-4.3-5.29h-12.56c-2.95,0-5.34,2.39-5.34,5.34v5.29c0,3.49.83,6.73,6.32,6.86h14.55c.44,0,.79-.35.79-.79v-2.19c0-.44-.35-.79-.79-.79h-14.55c-1.08,0-1.94-1.16-1.94-3.08h15.37c2.69,0,2.45-2.4,2.45-5.35h0ZM77.87,30.05h9.9c.69,0,1.25.56,1.25,1.25v1.88c0,.22-.17.39-.39.39h-12.89c0-2.59.95-3.51,2.13-3.51h0Z"/>
  <path class="cls-2" d="M185.39,20.1l-1.55,2.74c-.19.34-.55.55-.94.55h-43.53c-1.5,0-2.93-.6-3.99-1.65l-2.29-2.29-14.69-14.69c-.61-.61-1.61-.61-2.22,0l-14.69,14.69-2.29,2.29c-1.06,1.06-2.49,1.65-3.99,1.65h-30.95c-1.05,0-1.2,1.06-1.2,2.36v17.3c0,.34-.27.61-.61.61h-3.1c-.34,0-.61-.27-.61-.61v-17.3c0-3.93,1.12-6.3,6.24-6.3h30.9L113.28,2.04c2.22-2.22,5.81-2.21,8.02,0l17.4,17.4h46.31c.34,0,.55.36.38.66h0Z"/>
  <rect class="cls-2" x="54.91" y="26.22" width="14.32" height="4.05" rx=".54" ry=".54"/>
  <polygon class="cls-2" points="107.71 5.48 102.44 5.48 102.44 6.64 103.12 6.64 103.12 12.86 107.04 12.86 107.04 6.64 107.71 6.64 107.71 5.48"/>
  <path class="cls-1" d="M135.94,43.83c-2.69,0-3.32-2.37-3.32-5.29s.63-5.35,3.32-5.35h14.46c0-1.92-.86-3.08-1.94-3.08h-13.64c-.44,0-.79-.35-.79-.79v-2.19c0-.44.35-.79.79-.79h13.64c5.49.12,6.32,3.36,6.32,6.86v9.03c0,.88-.72,1.6-1.6,1.6h-17.24,0ZM137.47,39.61h12.94v-2.13h-12.94c-.53,0-.32.46-.32,1.06s-.21,1.06.32,1.06h0Z"/>
  <path class="cls-1" d="M129.99,26.34c.53,0,.91.52.75,1.02l-4.76,14.86c-.07.22-.15.43-.24.63-.25.55-.8.89-1.4.89h-5.18c-.64,0-1.21-.41-1.42-1.01h0s-4.17-12.78-4.17-12.78c-.05-.15-.68-.15-.72,0l-4.17,12.77h0c-.21.62-.78,1.02-1.42,1.02h-5.18c-.6,0-1.15-.34-1.4-.89-.09-.2-.17-.4-.24-.63l-4.76-14.86c-.16-.51.22-1.02.75-1.02h3.39c.34,0,.65.22.75.55l3.86,12.56c.09.27.23.61.45.61.32,0,.36-.31.45-.58l4.03-12.34c.16-.49.61-.81,1.12-.81h5.47c.51,0,.96.33,1.12.81l4.07,12.35c.09.27.23.58.45.58s.36-.31.45-.61l3.82-12.56c.1-.33.4-.56.75-.56h3.39,0Z"/>
  <path class="cls-1" d="M181.1,26.5c.39,0,.64.43.44.77l-12.3,21.39-1.29,2.25c-.68,1.18-1.93,1.9-3.29,1.9h-3.36c-.51,0-.93-.41-.93-.93v-2.3c0-.51.41-.93.93-.93h1.92c.57,0,1.09-.3,1.38-.78l1.61-2.66,1.16-1.92h-.94c-.8,0-1.54-.43-1.93-1.13l-8.37-14.9c-.19-.34.06-.76.45-.76h4.21c.19,0,.37.11.45.27l6.84,13.02c.25.49.95.49,1.21.02l7.25-13.05c.09-.16.26-.26.45-.26h4.12Z"/>
  <path class="cls-1" d="M185.39,20.1l-1.55,2.74c-.19.34-.55.55-.94.55h-38.1c-1.38,0-2.7-.55-3.68-1.52l-2.42-2.42h46.31c.34,0,.55.36.38.66h0Z"/>
  <g>
    <rect class="cls-1" x="118.19" y="13.98" width="2.36" height="2.36"/>
    <rect class="cls-1" x="115.01" y="13.98" width="2.36" height="2.36"/>
    <rect class="cls-1" x="118.19" y="17.16" width="2.36" height="2.36"/>
    <rect class="cls-1" x="115.01" y="17.16" width="2.36" height="2.36"/>
  </g>
</svg>