<svg width="22" height="23" viewBox="0 0 22 23" fill="none" xmlns="http://www.w3.org/2000/svg">
<path d="M3.125 0.6875H18.75C20.459 0.6875 21.875 2.10352 21.875 3.8125V19.4375C21.875 21.1953 20.459 22.5625 18.75 22.5625H3.125C1.36719 22.5625 0 21.1953 0 19.4375V3.8125C0 2.10352 1.36719 0.6875 3.125 0.6875ZM7.51953 5.42383L5.37109 6.00977C4.98047 6.15625 4.6875 6.49805 4.6875 6.9375C4.6875 12.9922 9.57031 17.875 15.625 17.875C16.0645 17.875 16.4062 17.582 16.5527 17.1914L17.1387 15.043C17.2363 14.5547 17.041 14.0664 16.5527 13.8711L14.209 12.8945C13.8184 12.748 13.3789 12.8457 13.0859 13.1875L12.1094 14.3594C10.4004 13.5781 8.98438 12.1621 8.20312 10.4531L9.375 9.47656C9.7168 9.18359 9.81445 8.74414 9.66797 8.35352L8.69141 6.00977C8.49609 5.52148 8.00781 5.32617 7.51953 5.42383Z" fill="white"/>
</svg>
