<svg width="32" height="31" viewBox="0 0 32 31" fill="none" xmlns="http://www.w3.org/2000/svg">
<path d="M17.5156 1.80469L21.3242 9.59766L29.7031 10.8281C30.4062 10.9453 30.9922 11.4141 31.2266 12.1172C31.4609 12.7617 31.2852 13.5234 30.7578 13.9922L24.6641 20.0273L26.1289 28.582C26.2461 29.2852 25.9531 29.9883 25.3672 30.3984C24.7812 30.8672 24.0195 30.8672 23.375 30.5742L15.875 26.5312L8.31641 30.5742C7.73047 30.8672 6.96875 30.8672 6.38281 30.3984C5.79688 29.9883 5.50391 29.2852 5.62109 28.582L7.02734 20.0273L0.933594 13.9922C0.464844 13.5234 0.289062 12.7617 0.464844 12.1172C0.699219 11.4141 1.28516 10.9453 1.98828 10.8281L10.4258 9.59766L14.1758 1.80469C14.4688 1.16016 15.1133 0.75 15.875 0.75C16.5781 0.75 17.2227 1.16016 17.5156 1.80469Z" fill="#FFD500"/>
</svg>
